<svg width="661" height="52" viewBox="0 0 661 52" fill="none" xmlns="http://www.w3.org/2000/svg">
<rect width="661" height="52" fill="#1E1E1E"/>
<rect x="0.5" y="0.5" width="660" height="51" rx="17.5" fill="#D9D9D9" stroke="#801515"/>
<circle cx="31" cy="24" r="8" stroke="#801515" stroke-width="2"/>
<line x1="36.7071" y1="30.2929" x2="43.7071" y2="37.2929" stroke="#801515" stroke-width="2"/>
<rect x="580.5" y="0.5" width="80" height="51" rx="17.5" fill="#FFAAAA" stroke="#801515"/>
<path d="M595.616 21.264C596.267 21.264 596.832 21.3547 597.312 21.536C597.792 21.7067 598.165 21.9627 598.432 22.304C598.699 22.6347 598.832 23.04 598.832 23.52C598.832 24.0427 598.688 24.4587 598.4 24.768C598.112 25.0667 597.717 25.2853 597.216 25.424V25.488C597.557 25.584 597.872 25.7173 598.16 25.888C598.448 26.0587 598.677 26.2827 598.848 26.56C599.029 26.8373 599.12 27.1947 599.12 27.632C599.12 28.1013 598.987 28.528 598.72 28.912C598.464 29.296 598.064 29.6 597.52 29.824C596.987 30.048 596.299 30.16 595.456 30.16C595.051 30.16 594.661 30.1387 594.288 30.096C593.925 30.0533 593.595 29.9893 593.296 29.904C593.008 29.8187 592.752 29.7173 592.528 29.6V28.336C592.891 28.5067 593.317 28.6613 593.808 28.8C594.309 28.9387 594.853 29.008 595.44 29.008C595.867 29.008 596.251 28.96 596.592 28.864C596.944 28.768 597.221 28.6187 597.424 28.416C597.627 28.2027 597.728 27.9147 597.728 27.552C597.728 27.2213 597.637 26.9547 597.456 26.752C597.275 26.5387 597.003 26.3787 596.64 26.272C596.288 26.1653 595.835 26.112 595.28 26.112H594.128V24.96H595.056C595.792 24.96 596.379 24.864 596.816 24.672C597.264 24.4693 597.488 24.128 597.488 23.648C597.488 23.2427 597.317 22.9387 596.976 22.736C596.645 22.5333 596.165 22.432 595.536 22.432C595.067 22.432 594.651 22.48 594.288 22.576C593.936 22.6613 593.547 22.7947 593.12 22.976L592.624 21.856C593.083 21.6533 593.563 21.504 594.064 21.408C594.565 21.312 595.083 21.264 595.616 21.264ZM602.612 21.424V24.992H607.268V21.424H608.676V30H607.268V26.176H602.612V30H601.204V21.424H602.612ZM614.639 21.28C615.685 21.28 616.458 21.5093 616.959 21.968C617.461 22.4267 617.711 23.1573 617.711 24.16V30H616.687L616.415 28.784H616.351C616.106 29.0933 615.85 29.3547 615.583 29.568C615.327 29.7707 615.029 29.92 614.687 30.016C614.357 30.112 613.951 30.16 613.471 30.16C612.959 30.16 612.495 30.0693 612.079 29.888C611.674 29.7067 611.354 29.4293 611.119 29.056C610.885 28.672 610.767 28.192 610.767 27.616C610.767 26.7627 611.103 26.1067 611.775 25.648C612.447 25.1787 613.482 24.9227 614.879 24.88L616.335 24.832V24.32C616.335 23.6053 616.181 23.1093 615.871 22.832C615.562 22.5547 615.125 22.416 614.559 22.416C614.111 22.416 613.685 22.4853 613.279 22.624C612.874 22.752 612.495 22.9013 612.143 23.072L611.711 22.016C612.085 21.8133 612.527 21.6427 613.039 21.504C613.551 21.3547 614.085 21.28 614.639 21.28ZM615.055 25.856C613.989 25.8987 613.247 26.0693 612.831 26.368C612.426 26.6667 612.223 27.088 612.223 27.632C612.223 28.112 612.367 28.464 612.655 28.688C612.954 28.912 613.333 29.024 613.791 29.024C614.517 29.024 615.119 28.8267 615.599 28.432C616.079 28.0267 616.319 27.408 616.319 26.576V25.808L615.055 25.856ZM627.304 17.872C627.261 18.4053 627.128 18.8533 626.904 19.216C626.691 19.5787 626.371 19.8507 625.944 20.032C625.517 20.2133 624.963 20.304 624.28 20.304C623.587 20.304 623.027 20.2133 622.6 20.032C622.184 19.8507 621.88 19.584 621.688 19.232C621.496 18.8693 621.379 18.416 621.336 17.872H622.648C622.701 18.448 622.851 18.8373 623.096 19.04C623.352 19.232 623.757 19.328 624.312 19.328C624.803 19.328 625.187 19.2267 625.464 19.024C625.752 18.8107 625.923 18.4267 625.976 17.872H627.304ZM621.688 26.656C621.688 26.752 621.683 26.8907 621.672 27.072C621.672 27.2427 621.667 27.4293 621.656 27.632C621.645 27.824 621.635 28.0107 621.624 28.192C621.613 28.3627 621.603 28.5013 621.592 28.608L626.184 21.424H627.912V30H626.6V24.944C626.6 24.7733 626.6 24.5493 626.6 24.272C626.611 23.9947 626.621 23.7227 626.632 23.456C626.643 23.1787 626.653 22.9707 626.664 22.832L622.104 30H620.36V21.424H621.688V26.656ZM636.561 22.608H633.761V30H632.369V22.608H629.601V21.424H636.561V22.608ZM639.579 26.656C639.579 26.752 639.573 26.8907 639.563 27.072C639.563 27.2427 639.557 27.4293 639.547 27.632C639.536 27.824 639.525 28.0107 639.515 28.192C639.504 28.3627 639.493 28.5013 639.483 28.608L644.075 21.424H645.803V30H644.491V24.944C644.491 24.7733 644.491 24.5493 644.491 24.272C644.501 23.9947 644.512 23.7227 644.523 23.456C644.533 23.1787 644.544 22.9707 644.555 22.832L639.995 30H638.251V21.424H639.579V26.656Z" fill="#801515"/>
<path d="M56.552 33V21.576H65.128V33H63.704V22.84H57.992V33H56.552ZM75.5191 28.696C75.5191 29.4107 75.4231 30.0453 75.2311 30.6C75.0498 31.144 74.7831 31.608 74.4311 31.992C74.0898 32.376 73.6685 32.6693 73.1671 32.872C72.6765 33.064 72.1271 33.16 71.5191 33.16C70.9538 33.16 70.4311 33.064 69.9511 32.872C69.4711 32.6693 69.0551 32.376 68.7031 31.992C68.3511 31.608 68.0738 31.144 67.8711 30.6C67.6791 30.0453 67.5831 29.4107 67.5831 28.696C67.5831 27.7467 67.7431 26.9467 68.0631 26.296C68.3831 25.6347 68.8418 25.1333 69.4391 24.792C70.0365 24.44 70.7458 24.264 71.5671 24.264C72.3458 24.264 73.0285 24.44 73.6151 24.792C74.2125 25.1333 74.6765 25.6347 75.0071 26.296C75.3485 26.9467 75.5191 27.7467 75.5191 28.696ZM69.0391 28.696C69.0391 29.368 69.1245 29.9547 69.2951 30.456C69.4765 30.9467 69.7538 31.3253 70.1271 31.592C70.5005 31.8587 70.9751 31.992 71.5511 31.992C72.1271 31.992 72.6018 31.8587 72.9751 31.592C73.3485 31.3253 73.6205 30.9467 73.7911 30.456C73.9725 29.9547 74.0631 29.368 74.0631 28.696C74.0631 28.0133 73.9725 27.432 73.7911 26.952C73.6098 26.472 73.3325 26.104 72.9591 25.848C72.5965 25.5813 72.1218 25.448 71.5351 25.448C70.6605 25.448 70.0258 25.736 69.6311 26.312C69.2365 26.888 69.0391 27.6827 69.0391 28.696ZM89.3826 24.424V33H77.7506V24.424H79.1586V31.816H82.8546V24.424H84.2626V31.816H87.9746V24.424H89.3826ZM90.7816 24.424H92.2856L94.1416 29.304C94.2483 29.592 94.3443 29.8693 94.4296 30.136C94.5256 30.4027 94.611 30.664 94.6856 30.92C94.7603 31.1653 94.819 31.4053 94.8616 31.64H94.9256C94.9896 31.3733 95.091 31.0267 95.2296 30.6C95.3683 30.1627 95.5123 29.7253 95.6616 29.288L97.4056 24.424H98.9256L95.2296 34.184C95.027 34.7173 94.787 35.1813 94.5096 35.576C94.243 35.9813 93.9123 36.2907 93.5176 36.504C93.1336 36.728 92.6643 36.84 92.1096 36.84C91.8536 36.84 91.6296 36.824 91.4376 36.792C91.2456 36.7707 91.0803 36.744 90.9416 36.712V35.592C91.059 35.6133 91.1976 35.6347 91.3576 35.656C91.5283 35.6773 91.7043 35.688 91.8856 35.688C92.2163 35.688 92.499 35.624 92.7336 35.496C92.979 35.3787 93.187 35.2027 93.3576 34.968C93.5283 34.744 93.6723 34.4773 93.7896 34.168L94.2376 33.032L90.7816 24.424ZM105.354 24.424H106.89L103.226 28.552L107.194 33H105.562L101.69 28.648V33H100.282V24.424H101.69V28.584L105.354 24.424Z" fill="#887777"/>
</svg>
